<?xml version="1.0" encoding="UTF-8" standalone="yes"?>
<svg xmlns="http://www.w3.org/2000/svg" xmlns:xlink="http://www.w3.org/1999/xlink" width="24px" height="24px" viewBox="0 0 24 24" version="1.1" fill="#000000">
  <g id="surface919272">
    <path style=" stroke:none;fill-rule:nonzero;fill:#000000;fill-opacity:1;" d="M 7.160156 3 L 8.761719 5 L 18 5 C 18.550781 5 19 5.449219 19 6 L 19 15 L 16 15 L 20 20 L 24 15 L 21 15 L 21 6 C 21 4.347656 19.652344 3 18 3 Z M 4 4 L 0 9 L 3 9 L 3 18 C 3 19.652344 4.347656 21 6 21 L 16.839844 21 L 15.238281 19 L 6 19 C 5.449219 19 5 18.550781 5 18 L 5 9 L 8 9 Z M 4 4 "/>
  </g>
</svg>
